# xmcd CD database file
#
# Track frame offsets:
#	150
#	39511
#	77572
#	99621
#	135893
#	175823
#
# Disc length: 2645 seconds
#
# Revision: 0
# Processed by: cddbd v1.5.2PL0 Copyright (c) Steve Scherf et al.
# Submitted via: CDex 1.79
#
DISCID=3d0a5306
DTITLE=Beck, Joe and Mitchell, Red - Empathy -- CD 2
DYEAR=1980
DGENRE=Jazz
TTITLE0=whisper not
TTITLE1=Emily
TTITLE2=Juanabara
TTITLE3=darn that dream
TTITLE4=autumn leaves
TTITLE5='round midnight
EXTD=YEAR: 1980
EXTT0=
EXTT1=
EXTT2=
EXTT3=
EXTT4=
EXTT5=
PLAYORDER=
